<svg width="1024" height="1024" viewBox="0 0 1024 1024" fill="none" xmlns="http://www.w3.org/2000/svg">
<g clip-path="url(#clip0_1_1752)">
<path d="M398.426 510.436C398.426 500.868 401.463 491.667 407.109 483.876C405.254 478.288 404.296 472.432 404.296 466.629C404.296 441.603 421.195 419.801 445.695 411.616C447.88 392.957 460.703 376.9 478.773 369.215C469.486 355.185 454.827 346.96 441.313 349.004C431.547 350.486 423.455 356.678 418.699 366.025C410.14 362.354 401.239 361.744 393.434 364.306C384.987 367.083 378.426 373.02 374.461 381.472C369.201 392.666 369.195 407.073 374.281 420.771C367.427 425.163 362.304 431.617 359.31 439.709C354.275 453.297 355.955 469.69 363.917 484.707C364.788 486.345 365.74 487.972 366.78 489.569C359.304 494.107 353.708 500.834 350.708 509.042C345.94 522.067 348.05 537.413 356.497 551.135C360.375 557.439 365.51 563.149 371.492 567.842C369.494 575.65 371.006 584.23 375.874 591.996C382.677 602.831 394.934 610.18 408.03 611.417C425.571 642.182 446.772 657.879 477.092 671.479C441.07 631.738 421.04 598.823 419.913 549.189C406.655 540.353 398.426 525.836 398.426 510.436Z" fill="#28B446"/>
<path d="M675.584 465.057C676.081 442.436 661.845 422.087 639.785 413.291C636.567 393.988 619.898 378.901 599.183 376.345C598.996 374.422 598.604 372.505 598.013 370.611C594.358 358.97 583.36 350.204 570.656 348.798C562.345 347.874 554.489 349.82 547.997 354.078C542.209 350.506 535.467 348.577 528.558 348.577C510.762 348.577 495.973 360.846 493.396 376.798C473.047 380.632 457.791 397.554 457.791 417.352C457.791 418.415 457.841 419.478 457.928 420.559C434.337 424.521 416.721 443.65 416.721 466.637C416.721 473.283 418.258 479.87 421.209 485.929C414.58 492.547 410.857 501.255 410.857 510.444C410.857 524.178 419.31 536.632 432.301 542.627C431.729 595.276 452.276 627.238 492.362 670.308L494.621 672.707L495.032 673.143C501.108 679.504 509.854 683 519.67 683C521.368 683 523.043 682.867 524.693 682.67L522.564 678.812C509.188 649.121 500.977 622.759 496.396 599.324C479.135 594.364 471.672 581.49 471.342 580.899C469.736 578.064 470.912 574.543 473.95 573.05C476.969 571.557 480.722 572.638 482.347 575.456C482.577 575.855 486.199 581.805 494.124 585.859C491.958 570.657 491.328 556.773 491.958 544.26C491.883 543.627 491.914 543.005 492.069 542.366C493.152 524.479 496.651 509.34 501.27 496.653C480.299 484.983 477.71 463.256 479.515 452.713C480.056 449.547 483.256 447.357 486.642 447.891C490.034 448.396 492.344 451.365 491.814 454.525C491.659 455.46 488.864 474.73 505.844 485.57C506.691 483.739 507.544 481.921 508.428 480.219C524.799 448.687 548.197 432.996 557.254 427.82C557.234 416.185 565.408 406.076 565.794 405.606C567.878 403.056 571.801 402.579 574.514 404.52C577.241 406.466 577.764 410.108 575.685 412.652C574.296 414.372 571.57 418.653 570.35 423.365C584.685 421.848 598.679 429.4 599.388 429.795C602.357 431.428 603.335 434.989 601.591 437.748C600.428 439.584 598.348 440.606 596.225 440.606C595.149 440.606 594.066 440.351 593.076 439.805C588.737 437.44 575.528 432.218 566.479 436.261C564.904 437.01 554.309 442.332 542.252 454.072C566.945 452.393 584.119 459.236 584.984 459.585C588.127 460.88 589.56 464.308 588.184 467.241C587.157 469.414 584.873 470.715 582.476 470.715C581.648 470.715 580.801 470.564 579.991 470.227C579.525 470.042 558.468 461.897 530.556 467.317C524.967 474.654 519.588 483.45 515.132 493.929C515.119 494.696 514.952 495.474 514.59 496.218C514.353 496.711 514.036 497.141 513.687 497.536C510.147 506.592 507.289 516.776 505.571 528.279C519.644 520.041 537.398 519.681 538.412 519.67H538.487C541.885 519.67 544.655 522.214 544.704 525.397C544.755 528.604 542.003 531.235 538.574 531.288C538.312 531.294 512.699 531.852 503.984 545.717C503.374 559.887 504.426 575.705 507.662 593.307C507.693 593.441 507.712 593.574 507.731 593.713C512.087 617.177 520.28 643.731 533.856 673.874L536.818 679.208C541.388 677.058 545.321 674.083 548.128 670.424C552.815 664.312 553.923 656.9 551.235 649.551C539.981 618.733 540.329 595.218 552.267 579.649C567.742 559.462 599.973 556.447 617.8 556.447C626.982 556.447 633.287 557.237 633.349 557.249L639.748 558.062L640.389 552.067C640.477 551.277 642.313 532.56 630.61 519.844C629.932 519.106 629.216 518.409 628.482 517.74C631.787 517.05 635.055 516.067 638.267 514.802C660.451 506.07 675.103 486.539 675.584 465.057Z" fill="#28B446"/>
</g>
<defs>
<clipPath id="clip0_1_1752">
<rect width="338" height="342" fill="white" transform="translate(342 341)"/>
</clipPath>
</defs>
</svg>
