<svg width="1024" height="1024" viewBox="0 0 1024 1024" fill="none" xmlns="http://www.w3.org/2000/svg">
<rect width="1024" height="1024" fill="white"/>
<path d="M301.172 508.128C301.172 490.559 306.834 473.663 317.357 459.357C313.9 449.096 312.113 438.344 312.113 427.687C312.113 381.733 343.613 341.699 389.278 326.669C393.351 292.406 417.251 262.922 450.932 248.809C433.621 223.048 406.298 207.943 381.111 211.698C362.907 214.418 347.824 225.789 338.96 242.953C323.007 236.211 306.416 235.091 291.868 239.796C276.124 244.894 263.895 255.796 256.504 271.317C246.701 291.872 246.689 318.327 256.168 343.48C243.394 351.545 233.846 363.396 228.265 378.255C218.879 403.206 222.012 433.309 236.851 460.883C238.475 463.89 240.25 466.878 242.188 469.81C228.254 478.143 217.823 490.496 212.231 505.568C203.344 529.485 207.277 557.665 223.021 582.862C230.249 594.437 239.821 604.922 250.97 613.54C247.246 627.878 250.065 643.634 259.138 657.894C271.819 677.79 294.664 691.284 319.074 693.555C351.769 750.048 391.286 778.871 447.799 803.844C380.658 730.87 343.323 670.43 341.223 579.288C316.51 563.064 301.172 536.407 301.172 508.128Z" fill="#28B446"/>
<path d="M817.768 424.801C818.695 383.263 792.161 345.896 751.043 329.746C745.045 294.299 713.976 266.596 675.364 261.903C675.015 258.372 674.286 254.852 673.183 251.374C666.371 229.997 645.873 213.9 622.192 211.319C606.702 209.623 592.06 213.196 579.959 221.015C569.17 214.455 556.604 210.913 543.726 210.913C510.556 210.913 482.991 233.443 478.188 262.735C440.26 269.775 411.823 300.848 411.823 337.202C411.823 339.154 411.916 341.106 412.078 343.09C368.107 350.365 335.273 385.492 335.273 427.702C335.273 439.906 338.139 452.002 343.638 463.127C331.282 475.279 324.344 491.269 324.344 508.143C324.344 533.362 340.099 556.231 364.313 567.24C363.245 663.916 401.544 722.607 476.261 801.694L480.471 806.1L481.238 806.899C492.562 818.58 508.863 825 527.16 825C530.325 825 533.446 824.756 536.523 824.394L532.554 817.309C507.622 762.789 492.318 714.383 483.779 671.35C451.607 662.242 437.696 638.602 437.081 637.515C434.088 632.31 436.28 625.844 441.942 623.103C447.569 620.361 454.565 622.347 457.593 627.521C458.023 628.255 464.774 639.18 479.545 646.624C475.507 618.709 474.334 593.215 475.507 570.237C475.368 569.076 475.426 567.933 475.715 566.759C477.733 533.915 484.254 506.116 492.864 482.82C453.776 461.39 448.95 421.494 452.314 402.133C453.324 396.32 459.288 392.298 465.598 393.28C471.922 394.207 476.227 399.659 475.24 405.461C474.951 407.179 469.74 442.563 501.39 462.468C502.968 459.105 504.558 455.767 506.207 452.642C536.72 394.741 580.332 365.929 597.213 356.424C597.176 335.058 612.412 316.497 613.131 315.633C617.016 310.95 624.327 310.076 629.385 313.638C634.467 317.212 635.441 323.9 631.566 328.572C628.978 331.73 623.896 339.592 621.623 348.243C648.343 345.459 674.425 359.326 675.748 360.051C681.281 363.049 683.103 369.588 679.853 374.654C677.685 378.025 673.808 379.903 669.852 379.903C667.846 379.903 665.828 379.434 663.982 378.431C655.895 374.089 631.275 364.499 614.407 371.924C611.472 373.3 591.724 383.071 569.251 404.629C615.276 401.546 647.287 414.112 648.899 414.753C654.758 417.131 657.428 423.425 654.863 428.812C652.95 432.801 648.692 435.191 644.224 435.191C642.681 435.191 641.103 434.913 639.594 434.295C638.725 433.953 599.476 418.998 547.451 428.95C537.032 442.422 527.007 458.574 518.702 477.817C518.678 479.226 518.366 480.653 517.691 482.02C517.25 482.926 516.66 483.716 516.009 484.44C509.409 501.07 504.083 519.77 500.881 540.893C527.112 525.765 560.203 525.103 562.093 525.084H562.232C568.566 525.084 573.73 529.756 573.822 535.601C573.916 541.489 568.787 546.32 562.395 546.417C561.907 546.429 514.166 547.453 497.922 572.914C496.786 598.932 498.747 627.98 504.779 660.3C504.837 660.546 504.871 660.79 504.907 661.046C513.027 704.132 528.296 752.891 553.601 808.242L559.122 818.036C567.64 814.09 574.971 808.626 580.203 801.907C588.939 790.685 591.005 777.074 585.994 763.579C565.017 706.989 565.666 663.809 587.918 635.221C616.761 598.152 676.837 592.616 710.064 592.616C727.179 592.616 738.931 594.068 739.047 594.089L750.975 595.582L752.169 584.573C752.332 583.123 755.755 548.753 733.941 525.403C732.679 524.048 731.343 522.768 729.975 521.541C736.136 520.273 742.226 518.468 748.213 516.145C789.562 500.111 816.873 464.248 817.768 424.801Z" fill="#28B446"/>
</svg>
