<svg width="1024" height="1024" viewBox="0 0 1024 1024" fill="none" xmlns="http://www.w3.org/2000/svg">
<g clip-path="url(#clip0_1_1729)">
<path d="M285.187 508.872C285.187 489.736 291.334 471.334 302.759 455.752C299.005 444.576 297.066 432.865 297.066 421.258C297.066 371.206 331.265 327.602 380.845 311.232C385.266 273.914 411.215 241.8 447.783 226.429C428.989 198.371 399.324 181.919 371.977 186.009C352.213 188.971 335.838 201.357 326.214 220.051C308.894 212.708 290.881 211.488 275.085 216.612C257.991 222.165 244.715 234.039 236.69 250.944C226.046 273.332 226.034 302.146 236.325 329.542C222.456 338.326 212.089 351.234 206.031 367.418C195.84 394.593 199.241 427.381 215.352 457.414C217.115 460.689 219.043 463.944 221.146 467.137C206.018 476.214 194.694 489.667 188.622 506.083C178.973 532.133 183.244 562.826 200.337 590.271C208.185 602.877 218.577 614.297 230.682 623.684C226.638 639.3 229.699 656.461 239.55 671.993C253.318 693.663 278.121 708.361 304.624 710.834C340.12 772.365 383.024 803.758 444.382 830.957C371.486 751.476 330.95 685.647 328.67 586.377C301.84 568.706 285.187 539.673 285.187 508.872Z" fill="#28B446"/>
<path d="M846.063 418.115C847.069 372.872 818.261 332.173 773.619 314.583C767.106 275.975 733.374 245.802 691.453 240.69C691.074 236.845 690.282 233.01 689.085 229.223C681.689 205.94 659.433 188.407 633.723 185.596C616.906 183.748 601.008 187.641 587.87 196.157C576.156 189.012 562.513 185.154 548.531 185.154C512.519 185.154 482.591 209.692 477.375 241.596C436.196 249.264 405.322 283.109 405.322 322.704C405.322 324.83 405.423 326.957 405.6 329.118C357.859 337.041 322.211 375.301 322.211 421.275C322.211 434.566 325.322 447.741 331.293 459.858C317.878 473.094 310.345 490.509 310.345 508.888C310.345 536.356 327.451 561.264 353.74 573.255C352.581 678.551 394.162 742.477 475.283 828.616L479.855 833.414L480.687 834.285C492.982 847.007 510.68 854 530.545 854C533.982 854 537.371 853.734 540.711 853.34L536.402 845.624C509.332 786.242 492.717 733.519 483.446 686.649C448.516 676.728 433.413 650.981 432.745 649.797C429.495 644.128 431.876 637.085 438.023 634.099C444.132 631.113 451.728 633.276 455.016 638.911C455.482 639.711 462.812 651.61 478.849 659.718C474.465 629.314 473.191 601.546 474.465 576.52C474.314 575.254 474.377 574.01 474.691 572.731C476.882 536.958 483.962 506.681 493.31 481.307C450.871 457.967 445.631 414.513 449.284 393.425C450.38 387.093 456.855 382.713 463.707 383.782C470.572 384.793 475.246 390.73 474.175 397.05C473.861 398.921 468.204 437.46 502.566 459.14C504.279 455.478 506.006 451.842 507.796 448.438C540.925 385.374 588.274 353.993 606.603 343.641C606.563 320.369 623.104 300.153 623.885 299.212C628.103 294.111 636.04 293.159 641.532 297.039C647.05 300.931 648.107 308.216 643.901 313.305C641.091 316.744 635.573 325.307 633.105 334.729C662.115 331.697 690.433 346.801 691.869 347.591C697.877 350.855 699.855 357.978 696.327 363.496C693.972 367.168 689.763 369.213 685.468 369.213C683.291 369.213 681.099 368.702 679.095 367.609C670.315 362.881 643.584 352.436 625.27 360.522C622.084 362.021 600.643 372.663 576.245 396.144C626.214 392.786 660.969 406.473 662.719 407.17C669.081 409.761 671.979 416.616 669.194 422.483C667.117 426.828 662.494 429.431 657.643 429.431C655.968 429.431 654.255 429.129 652.616 428.455C651.673 428.083 609.06 411.794 552.575 422.634C541.264 437.307 530.38 454.899 521.362 475.859C521.337 477.392 520.997 478.947 520.265 480.436C519.786 481.423 519.145 482.283 518.438 483.072C511.273 501.185 505.491 521.552 502.014 544.558C530.494 528.082 566.421 527.361 568.473 527.34H568.624C575.501 527.34 581.107 532.428 581.206 538.794C581.309 545.208 575.74 550.47 568.8 550.575C568.27 550.588 516.437 551.704 498.802 579.435C497.568 607.773 499.696 639.411 506.246 674.613C506.308 674.882 506.346 675.147 506.385 675.426C515.2 722.354 531.779 775.461 559.253 835.748L565.246 846.416C574.495 842.117 582.455 836.166 588.135 828.847C597.62 816.625 599.863 801.8 594.422 787.102C571.648 725.466 572.352 678.436 596.511 647.298C627.827 606.923 693.052 600.894 729.127 600.894C747.709 600.894 760.469 602.475 760.594 602.499L773.544 604.124L774.841 592.133C775.018 590.555 778.734 553.119 755.051 527.687C753.68 526.211 752.229 524.817 750.744 523.481C757.433 522.1 764.045 520.134 770.546 517.604C815.439 500.141 845.091 461.079 846.063 418.115Z" fill="#28B446"/>
</g>
<defs>
<clipPath id="clip0_1_1729">
<rect width="684" height="684" fill="white" transform="translate(171 170)"/>
</clipPath>
</defs>
</svg>
