<svg width="16" height="21" viewBox="0 0 16 21" fill="none" xmlns="http://www.w3.org/2000/svg">
<path d="M8.00002 0C3.58878 0 0 3.58878 0 8.00002C0 10.481 1.28372 13.3625 3.81553 16.5645C5.66812 18.9075 7.49403 20.5268 7.57085 20.5945C7.81604 20.8109 8.18395 20.8109 8.42918 20.5945C8.506 20.5268 10.3319 18.9075 12.1845 16.5645C14.7163 13.3625 16 10.481 16 8.00002C16 3.58878 12.4112 0 8.00002 0V0ZM8.00002 19.2232C6.45846 17.7541 1.2973 12.4985 1.2973 8.00002C1.2973 4.30412 4.30412 1.2973 8.00002 1.2973C11.6959 1.2973 14.7027 4.30412 14.7027 8.00002C14.7027 12.4985 9.54149 17.7542 8.00002 19.2232Z" fill="#868889"/>
<path d="M12.9629 7.61594L8.42237 3.72403C8.17945 3.51582 7.82103 3.51582 7.57811 3.72403L3.03755 7.61594C2.76556 7.84905 2.73406 8.25859 2.96721 8.53058C3.20036 8.80257 3.60987 8.83407 3.88185 8.60092L4.43264 8.12878V11.3517C4.43264 11.7099 4.72307 12.0003 5.08129 12.0003H10.9191C11.2774 12.0003 11.5678 11.7099 11.5678 11.3517V8.12878L12.1186 8.60092C12.3918 8.83512 12.8012 8.80135 13.0333 8.53058C13.2664 8.25859 13.2349 7.84909 12.9629 7.61594ZM10.2705 10.703H5.72994V7.01679L8.00022 5.07084L10.2705 7.01679V10.703Z" fill="#868889"/>
</svg>
