<svg width="23" height="23" viewBox="0 0 23 23" fill="none" xmlns="http://www.w3.org/2000/svg">
<g clip-path="url(#clip0_86_1563)">
<path d="M11.5 23C5.15851 23 0 17.8415 0 11.5C0 5.15851 5.15851 0 11.5 0C17.8415 0 23 5.15941 23 11.5C23 17.8406 17.8415 23 11.5 23ZM11.5 1.78156C6.14194 1.78156 1.78156 6.14104 1.78156 11.5C1.78156 16.859 6.14194 21.2184 11.5 21.2184C16.8581 21.2184 21.2184 16.859 21.2184 11.5C21.2184 6.14104 16.859 1.78156 11.5 1.78156Z" fill="black"/>
<path d="M15.9539 12.4709H12.3908V16.034C12.3908 16.5257 11.9926 16.9248 11.5 16.9248C11.0074 16.9248 10.6092 16.5257 10.6092 16.034V12.4709H7.04607C6.55346 12.4709 6.15527 12.0718 6.15527 11.5801C6.15527 11.0884 6.55346 10.6893 7.04607 10.6893H10.6092V7.12617C10.6092 6.63446 11.0074 6.23537 11.5 6.23537C11.9926 6.23537 12.3908 6.63446 12.3908 7.12617V10.6893H15.9539C16.4465 10.6893 16.8447 11.0884 16.8447 11.5801C16.8447 12.0718 16.4465 12.4709 15.9539 12.4709Z" fill="black"/>
</g>
<defs>
<clipPath id="clip0_86_1563">
<rect width="23" height="23" fill="white" transform="matrix(1 0 0 -1 0 23)"/>
</clipPath>
</defs>
</svg>
